<?xml version="1.0" standalone="no"?>
<!DOCTYPE svg PUBLIC "-//W3C//DTD SVG 20010904//EN"
 "http://www.w3.org/TR/2001/REC-SVG-20010904/DTD/svg10.dtd">
<svg version="1.0" xmlns="http://www.w3.org/2000/svg"
 width="863.000000pt" height="863.000000pt" viewBox="0 0 863.000000 863.000000"
 preserveAspectRatio="xMidYMid meet">
<metadata>
Created by potrace 1.14, written by Peter Selinger 2001-2017
</metadata>
<g transform="translate(0.000000,863.000000) scale(0.100000,-0.100000)"
fill="#000000" stroke="none">
<path d="M3525 8583 c-46 -63 -126 -220 -158 -308 -22 -63 -72 -311 -79 -393
-3 -37 0 -35 -143 -84 -72 -25 -236 -31 -272 -10 -27 15 -29 6 -9 -42 25 -61
110 -99 169 -77 44 17 33 -3 -47 -86 l-74 -77 -67 27 c-36 15 -71 25 -76 22
-5 -4 -9 -2 -9 3 0 5 -24 20 -52 33 -46 21 -69 24 -163 24 -101 0 -114 -2
-162 -27 -97 -52 -195 -172 -250 -308 -42 -104 -54 -191 -55 -373 l0 -168 -36
-24 c-20 -14 -42 -25 -49 -25 -7 0 -13 -4 -13 -10 0 -6 27 -10 60 -10 45 0 60
-3 60 -14 0 -8 -9 -18 -20 -21 -56 -18 -262 -211 -407 -382 -98 -115 -266
-364 -245 -363 4 0 23 22 42 48 114 155 331 407 295 342 -8 -13 -6 -13 8 -1 9
7 14 18 10 24 -3 5 -1 7 5 4 5 -4 17 -4 26 -1 17 6 96 117 96 134 0 11 178
190 188 190 4 0 19 -33 34 -73 28 -74 138 -245 138 -214 0 9 -4 17 -8 17 -14
0 -89 140 -116 217 l-25 72 32 25 32 26 -32 0 c-25 0 -33 4 -33 18 0 12 30 32
97 66 105 54 232 135 254 163 13 17 13 17 -6 2 -20 -17 -305 -172 -339 -185
-18 -7 -19 -4 -12 52 18 151 79 297 174 415 101 126 182 180 327 220 78 21
217 31 232 16 4 -5 -6 -21 -23 -35 -62 -54 -250 -285 -281 -347 -21 -42 -7
-25 80 90 83 111 232 275 250 275 7 0 29 -5 50 -11 31 -8 37 -14 32 -30 -11
-35 -7 -132 10 -214 40 -195 120 -381 246 -571 316 -475 723 -838 1123 -998
96 -39 114 -43 98 -23 -5 6 -12 21 -15 32 -4 19 -5 18 -6 -2 -1 -20 -4 -21
-33 -12 -18 5 -40 18 -50 29 -9 11 -18 15 -20 10 -8 -26 -237 103 -395 223
-309 234 -661 645 -777 909 -37 83 -112 305 -131 389 -17 73 -17 82 -1 195 9
66 24 142 32 170 7 28 14 59 14 68 0 10 25 41 55 71 44 42 52 54 38 57 -10 2
-37 -8 -60 -24 -29 -19 -54 -28 -83 -28 -25 0 -39 4 -35 10 3 6 -1 10 -9 10
-8 0 -18 4 -21 10 -4 6 1 7 11 3 12 -4 15 -3 10 5 -7 12 2 13 84 16 14 1 30 4
35 7 6 4 26 10 45 14 19 4 54 16 78 26 34 15 48 17 58 8 12 -10 13 -8 8 7 -4
10 -4 16 1 12 4 -4 13 -4 19 1 15 12 168 59 213 66 86 12 92 12 96 -7 3 -10
11 -18 19 -18 10 0 9 3 -2 10 -9 6 -10 10 -3 10 22 0 83 -42 76 -53 -3 -6 -1
-7 5 -3 10 6 58 -31 50 -39 -2 -2 -28 3 -58 11 -225 60 -501 -4 -541 -123 -6
-20 -21 -52 -32 -71 -26 -44 -35 -168 -14 -196 16 -22 58 -16 82 12 8 9 32 37
53 61 45 54 106 93 234 150 l97 43 133 -4 c119 -4 139 -7 192 -32 45 -22 60
-25 67 -15 8 14 -28 68 -47 68 -17 1 -45 37 -37 46 5 4 -1 5 -12 1 -15 -5 -17
-4 -9 4 9 9 17 9 34 0 17 -9 21 -9 15 0 -4 6 2 20 13 31 20 18 40 10 27 -11
-9 -14 6 -12 24 4 23 19 79 36 97 29 9 -3 19 -1 23 5 4 6 26 14 50 18 38 6 43
5 38 -9 -3 -9 -1 -19 5 -23 6 -4 8 -3 4 4 -11 19 13 24 44 8 17 -8 27 -10 24
-4 -4 7 2 8 17 3 13 -4 25 -11 27 -16 2 -4 10 -5 19 -2 12 5 14 3 8 -7 -5 -8
-4 -11 3 -6 11 7 42 -7 75 -33 9 -8 17 -11 17 -7 0 4 30 -9 68 -29 84 -46 44
-10 -56 49 -40 24 -103 53 -140 64 -234 71 -304 96 -357 126 -58 32 -60 34
-62 77 -1 40 0 42 13 25 16 -22 64 -31 64 -12 0 16 -17 71 -35 111 -21 46 -35
85 -31 85 2 0 17 -23 35 -51 31 -50 53 -59 59 -25 2 11 -13 35 -36 60 -37 38
-62 75 -62 92 0 4 24 -19 54 -52 70 -76 81 -67 55 46 -20 94 -23 110 -11 95 9
-13 94 -47 87 -34 -4 5 1 9 10 9 13 0 15 5 10 18 -40 93 -43 130 -17 181 21
43 47 56 32 16 -13 -35 -13 -94 1 -134 l11 -32 19 30 c26 42 31 39 24 -13 -8
-53 -1 -82 23 -89 9 -3 25 -8 35 -12 27 -11 24 62 -5 92 -19 20 -19 23 -4 23
27 0 68 -25 106 -65 19 -20 48 -43 64 -52 l28 -15 -7 41 c-4 26 -3 41 3 41 12
0 52 -101 52 -130 0 -10 7 -25 14 -33 14 -14 28 -77 76 -346 19 -109 28 -141
32 -110 4 36 2 99 -3 99 -3 0 -5 10 -3 23 1 12 3 25 3 30 1 4 19 7 41 7 25 0
40 5 40 13 1 18 116 70 140 62 11 -3 20 -11 20 -17 0 -5 7 -8 15 -4 8 3 15 0
15 -7 0 -7 13 -20 28 -29 15 -9 51 -40 79 -67 29 -28 54 -51 57 -51 5 0 48
-38 96 -86 14 -13 28 -23 30 -22 3 2 4 1 3 -1 -1 -2 6 -16 16 -30 21 -30 61
-142 61 -171 0 -25 16 -26 29 -2 9 15 11 14 11 -8 2 -46 12 -125 16 -129 2 -2
4 40 4 93 0 77 -3 97 -13 93 -10 -4 -13 9 -13 52 1 31 -2 70 -5 88 l-7 31 37
-15 c365 -151 797 -499 1130 -911 40 -50 80 -100 88 -109 31 -39 -6 25 -44 73
-143 189 -412 468 -587 611 -33 26 -84 71 -115 98 -116 104 -353 239 -527 301
l-81 28 -71 141 c-107 216 -266 476 -367 603 l-58 72 -533 0 -534 0 -35 -47z
m991 -470 c5 -55 -8 -34 -20 32 -6 31 -5 37 4 28 7 -6 14 -33 16 -60z m-476
-273 c11 -8 7 -9 -15 -4 -37 8 -45 14 -19 14 10 0 26 -5 34 -10z m-60 -20 c0
-5 -15 -10 -32 -9 -31 1 -32 1 -8 9 35 11 40 11 40 0z m-1060 -82 c0 -4 -4 -8
-9 -8 -6 0 -12 4 -15 8 -3 5 1 9 9 9 8 0 15 -4 15 -9z m-213 -174 c-3 -3 -12
-4 -19 -1 -8 3 -5 6 6 6 11 1 17 -2 13 -5z m-32 -14 c3 -5 1 -10 -4 -10 -6 0
-11 5 -11 10 0 6 2 10 4 10 3 0 8 -4 11 -10z m72 -2 c-2 -7 -12 -12 -22 -11
-12 1 -14 -2 -7 -9 8 -8 18 -6 36 5 23 16 28 15 96 -19 39 -20 69 -38 67 -40
-2 -2 -28 0 -57 6 -29 5 -76 10 -104 10 -28 0 -57 4 -65 9 -9 6 -23 4 -38 -6
-13 -8 -23 -11 -23 -6 0 5 14 18 31 28 75 48 94 55 86 33z m-130 -54 c-21 -16
-44 -20 -53 -10 -8 9 -3 12 22 12 18 0 32 -1 31 -2z m-97 -34 c0 -5 -2 -10 -4
-10 -3 0 -8 5 -11 10 -3 6 -1 10 4 10 6 0 11 -4 11 -10z m-20 -24 c0 -2 -7 -7
-16 -10 -8 -3 -12 -2 -9 4 6 10 25 14 25 6z m-110 -60 c0 -3 -4 -8 -10 -11 -5
-3 -10 -1 -10 4 0 6 5 11 10 11 6 0 10 -2 10 -4z m-35 -35 c-9 -8 -36 -10 -30
-2 2 4 11 8 20 8 8 0 13 -3 10 -6z m-194 -284 c-10 -9 -11 -8 -5 6 3 10 9 15
12 12 3 -3 0 -11 -7 -18z"/>
<path d="M2698 7508 c5 -5 16 -8 23 -6 8 3 3 7 -10 11 -17 4 -21 3 -13 -5z"/>
<path d="M4235 8343 c6 -35 48 -93 67 -93 4 0 8 13 8 28 0 21 -11 39 -41 66
l-41 37 7 -38z"/>
<path d="M3990 8343 c0 -4 14 -31 32 -60 23 -39 38 -53 55 -53 12 0 25 4 28
10 9 14 -21 55 -64 84 -38 27 -51 31 -51 19z"/>
<path d="M4356 8263 c9 -37 22 -50 29 -30 7 17 -11 57 -26 57 -5 0 -7 -12 -3
-27z"/>
<path d="M4100 8181 c0 -12 29 -35 36 -28 11 10 -5 37 -21 37 -8 0 -15 -4 -15
-9z"/>
<path d="M4094 8131 c20 -22 26 -25 26 -13 0 4 -10 13 -22 21 -23 14 -23 14
-4 -8z"/>
<path d="M4400 8139 c0 -5 5 -7 10 -4 6 3 10 8 10 11 0 2 -4 4 -10 4 -5 0 -10
-5 -10 -11z"/>
<path d="M4341 8094 c0 -11 3 -14 6 -6 3 7 2 16 -1 19 -3 4 -6 -2 -5 -13z"/>
<path d="M3970 8075 c7 -9 15 -13 17 -11 7 7 -7 26 -19 26 -6 0 -6 -6 2 -15z"/>
<path d="M4167 8073 c-4 -6 0 -16 8 -23 21 -17 28 -8 11 15 -8 11 -15 14 -19
8z"/>
<path d="M3920 7985 c7 -8 17 -15 22 -15 6 0 5 7 -2 15 -7 8 -17 15 -22 15 -6
0 -5 -7 2 -15z"/>
<path d="M3070 7734 c-17 -9 -20 -14 -9 -14 9 0 22 7 29 15 15 18 13 18 -20
-1z"/>
<path d="M5266 7654 c-11 -30 -6 -44 17 -44 15 0 18 3 9 8 -7 5 -10 16 -7 24
4 9 2 19 -3 22 -6 3 -13 -1 -16 -10z"/>
<path d="M4570 7640 c0 -5 5 -12 10 -15 6 -4 8 -11 4 -16 -3 -5 -2 -8 3 -7 14
4 55 -23 213 -140 170 -127 167 -125 425 -342 179 -151 179 -151 80 -53 -122
120 -273 246 -505 421 -96 73 -179 136 -185 140 -18 14 -45 22 -45 12z"/>
<path d="M4080 7512 c0 -10 85 -92 229 -222 220 -200 435 -507 567 -810 50
-114 68 -143 33 -51 -11 30 -18 56 -15 58 2 3 50 -64 105 -148 56 -85 101
-149 101 -143 0 11 -160 256 -188 287 -8 9 -17 15 -20 13 -2 -3 -27 39 -54 92
-83 160 -150 269 -267 435 -127 182 -211 286 -303 374 -90 86 -188 146 -188
115z"/>
<path d="M5256 7344 c-10 -26 -7 -174 4 -174 6 0 10 38 10 95 0 95 -2 109 -14
79z"/>
<path d="M2912 7263 c-44 -86 -94 -289 -91 -368 1 -16 7 10 15 58 15 99 49
227 70 269 20 38 34 78 29 78 -3 0 -13 -17 -23 -37z"/>
<path d="M2773 7271 c-79 -48 -174 -215 -212 -371 -27 -110 -43 -220 -39 -262
3 -30 6 -25 32 47 65 183 202 429 280 504 49 47 57 74 27 91 -29 15 -52 12
-88 -9z"/>
<path d="M3875 7050 c55 -57 102 -107 105 -110 28 -30 115 -137 148 -182 24
-32 45 -58 48 -58 22 0 -190 252 -308 365 l-93 90 100 -105z"/>
<path d="M4753 7033 c-22 -8 -14 -48 17 -91 16 -23 93 -106 170 -184 137 -140
142 -146 209 -278 68 -134 129 -278 195 -460 19 -52 35 -90 35 -84 2 31 -111
325 -189 489 -28 61 -58 130 -66 155 -32 105 -157 291 -266 396 -52 51 -81 67
-105 57z"/>
<path d="M2965 6948 c14 -142 96 -413 196 -652 54 -127 136 -296 144 -296 3 0
-5 21 -19 48 -88 174 -267 707 -297 885 -15 92 -33 103 -24 15z"/>
<path d="M6053 6908 c-20 -26 -21 -46 -4 -74 19 -29 234 -249 397 -404 70 -67
103 -108 151 -191 115 -194 217 -450 284 -706 21 -85 44 -161 49 -171 12 -21
89 -341 97 -402 3 -25 21 -105 40 -178 19 -73 33 -140 31 -149 -2 -11 -49 32
-139 128 -217 229 -343 380 -524 629 -93 129 -129 174 -109 140 4 -8 42 -62
83 -120 276 -390 634 -780 981 -1069 l65 -54 -50 49 c-28 27 -101 92 -161 145
l-111 97 -36 153 c-58 242 -62 228 41 129 93 -90 241 -197 376 -271 74 -41 80
-47 99 -97 11 -29 22 -51 24 -49 4 5 -89 255 -106 284 -16 27 -13 13 9 -52 11
-32 18 -60 15 -63 -9 -9 -139 85 -216 157 -124 114 -267 301 -343 446 -24 47
-160 564 -151 574 3 2 18 -2 34 -9 16 -6 35 -9 42 -4 8 4 10 3 5 -4 -4 -7 13
-21 43 -37 47 -23 56 -35 147 -187 116 -194 234 -424 329 -640 38 -87 70 -156
72 -154 7 6 -112 272 -198 446 -141 283 -307 563 -493 830 -32 46 -77 121 -99
165 -90 177 -214 340 -388 512 -74 72 -156 150 -182 172 -49 41 -86 52 -104
29z m637 -712 c60 -76 202 -280 248 -357 19 -32 20 -38 7 -43 -9 -3 -14 -2
-11 3 3 4 -22 19 -55 32 l-60 24 -38 96 c-21 52 -66 149 -100 215 -35 65 -61
117 -58 114 3 -3 33 -41 67 -84z"/>
<path d="M5625 6758 c176 -167 409 -365 498 -423 15 -10 26 -19 24 -21 -2 -2
-89 19 -195 46 -106 28 -194 50 -197 50 -13 0 -3 -18 13 -23 9 -3 66 -24 126
-47 59 -23 110 -39 112 -37 3 2 -23 15 -56 27 -33 12 -59 24 -58 26 2 1 50
-11 107 -27 58 -16 116 -29 130 -29 14 0 46 -9 71 -20 l45 -20 -25 21 c-14 11
-72 55 -130 98 -114 85 -217 172 -409 345 -154 139 -189 160 -56 34z"/>
<path d="M2813 6775 c0 -38 2 -53 4 -32 2 20 2 52 0 70 -2 17 -4 1 -4 -38z"/>
<path d="M2366 6755 c-9 -26 -7 -32 5 -12 6 10 9 21 6 23 -2 3 -7 -2 -11 -11z"/>
<path d="M2331 6649 c-12 -39 -21 -72 -19 -75 2 -2 14 28 27 67 12 39 21 72
19 75 -2 2 -14 -28 -27 -67z"/>
<path d="M4246 6588 c65 -102 88 -134 64 -88 -21 39 -119 190 -124 190 -3 0
24 -46 60 -102z"/>
<path d="M2301 6544 c0 -11 3 -14 6 -6 3 7 2 16 -1 19 -3 4 -6 -2 -5 -13z"/>
<path d="M6190 6477 c0 -38 78 -148 182 -255 53 -55 115 -127 137 -160 47 -70
209 -381 277 -535 26 -59 49 -105 51 -103 6 5 -110 256 -187 405 -39 74 -73
148 -75 165 -11 63 -129 271 -211 371 -36 44 -147 135 -165 135 -5 0 -9 -11
-9 -23z"/>
<path d="M4335 6440 c9 -16 18 -30 21 -30 2 0 -2 14 -11 30 -9 17 -18 30 -21
30 -2 0 2 -13 11 -30z"/>
<path d="M6713 6398 c19 -29 60 -100 92 -158 32 -58 89 -159 126 -225 37 -66
108 -196 159 -290 50 -93 96 -174 102 -180 8 -7 9 -6 4 2 -4 7 -9 21 -11 30
-2 10 -18 51 -34 91 -17 41 -29 77 -26 82 5 9 -112 204 -251 420 -55 85 -117
183 -138 218 -21 34 -42 62 -47 62 -5 0 6 -24 24 -52z"/>
<path d="M5030 6404 c0 -6 18 -53 41 -104 34 -76 39 -96 31 -115 -8 -17 -8
-25 2 -28 13 -5 126 -200 126 -218 0 -6 -7 -8 -17 -5 -9 4 -49 4 -90 0 l-73
-7 6 -51 c4 -28 13 -58 20 -67 20 -22 17 -31 -8 -27 -16 2 -22 9 -21 23 1 11
-5 42 -13 68 -15 45 -18 48 -44 42 -32 -7 -35 -2 -45 77 -5 38 -11 55 -21 55
-9 0 -13 -6 -10 -14 31 -79 43 -173 19 -150 -3 4 -40 -11 -82 -33 -42 -22 -80
-40 -83 -40 -3 0 -28 37 -54 83 -59 103 -141 222 -213 311 -116 142 -119 144
-71 49 27 -53 44 -71 19 -20 -26 56 84 -82 166 -208 93 -141 125 -199 125
-219 -1 -6 -20 -29 -42 -51 -23 -22 -35 -31 -27 -20 14 19 14 19 -11 0 -63
-50 -70 -59 -70 -96 0 -31 -23 -71 -34 -58 -1 2 -24 58 -49 124 -71 182 -145
328 -230 455 -107 160 -125 179 -75 80 24 -47 47 -88 51 -91 5 -3 8 -9 7 -13
-2 -7 12 -46 35 -101 20 -46 93 -285 101 -330 4 -22 9 -35 11 -28 6 18 -25
178 -53 272 -14 45 -23 86 -20 89 8 7 129 -247 162 -342 30 -86 29 -89 -31
-107 -15 -5 -11 -8 20 -14 57 -11 78 -24 40 -25 -16 -1 -24 -4 -18 -7 10 -3 9
-12 -4 -36 -15 -31 -15 -32 3 -16 33 27 52 13 65 -49 16 -80 29 -98 22 -31 -3
33 -1 64 6 76 9 17 7 23 -12 36 -21 15 -21 16 -2 16 11 1 32 16 47 34 14 19
59 56 100 83 40 27 77 54 81 59 5 6 5 -3 1 -20 -38 -162 -7 -311 88 -420 32
-36 37 -38 53 -25 10 8 26 33 35 55 24 55 87 126 105 118 9 -3 15 1 15 9 0 20
36 52 49 43 17 -10 13 -35 -5 -35 -11 0 -14 -6 -9 -22 9 -29 44 -68 62 -68 22
0 27 49 9 86 -9 19 -16 36 -16 39 0 7 115 -5 150 -16 47 -16 58 -25 66 -61 10
-48 24 -12 25 64 1 76 -36 192 -81 254 -34 47 -37 59 -15 50 8 -3 15 -3 15 -1
0 3 -28 69 -61 147 -82 190 -169 364 -211 419 -19 25 -40 54 -46 64 -6 11 -12
15 -12 9z m80 -554 c0 -5 -7 -10 -15 -10 -8 0 -15 5 -15 10 0 6 7 10 15 10 8
0 15 -4 15 -10z m-225 -19 c-12 -10 -65 -24 -65 -16 0 2 15 9 33 14 43 12 42
12 32 2z m50 -361 c3 -5 1 -10 -4 -10 -6 0 -11 5 -11 10 0 6 2 10 4 10 3 0 8
-4 11 -10z"/>
<path d="M5786 6323 c179 -394 259 -805 259 -1333 -1 -147 -5 -263 -14 -310
-21 -123 -52 -250 -61 -250 -4 0 -32 19 -62 43 -140 112 -189 140 -291 167
-69 17 -72 19 -69 47 4 46 52 352 68 432 8 41 13 76 11 78 -2 2 -15 -34 -27
-79 -41 -144 -113 -299 -169 -363 -26 -29 -26 -30 -1 -10 13 11 41 38 62 60
l37 40 1 -94 0 -93 -87 7 c-209 18 -454 -13 -713 -91 -97 -30 -293 -104 -288
-110 2 -2 38 10 79 26 115 44 332 107 449 129 159 30 389 45 494 32 96 -11
210 -42 271 -74 50 -25 169 -114 240 -179 74 -67 176 -207 239 -328 30 -56 56
-96 58 -89 4 13 48 -50 48 -70 0 -7 5 -9 12 -5 8 5 9 2 5 -10 -4 -10 -3 -15 3
-11 5 3 14 -3 20 -14 6 -11 6 -22 1 -25 -10 -6 7 -86 18 -86 4 0 7 -8 7 -17 1
-10 10 -65 22 -123 31 -155 37 -268 21 -391 -8 -65 -12 -156 -9 -244 3 -77 5
-203 5 -281 0 -133 -1 -142 -25 -176 -13 -20 -37 -43 -52 -52 -15 -9 -33 -22
-40 -29 -35 -34 -198 -120 -248 -130 -30 -6 -57 -14 -60 -18 -3 -3 -15 -9 -27
-13 -13 -4 -23 -14 -23 -22 0 -8 -9 -14 -21 -14 -12 0 -19 -5 -16 -12 2 -7 11
-12 21 -10 9 2 16 -2 16 -9 0 -6 7 -9 14 -6 11 4 13 1 9 -10 -4 -10 -2 -14 5
-9 6 3 14 1 18 -6 4 -7 4 -10 -1 -6 -4 4 -14 3 -22 -3 -17 -15 -46 8 -38 30 3
8 3 12 -1 9 -4 -4 -16 -3 -28 3 -20 10 -20 10 -2 -5 11 -9 18 -18 15 -20 -6
-6 -74 33 -72 42 1 4 -7 27 -18 52 -12 25 -38 89 -60 142 -133 333 -251 543
-422 753 -93 115 -379 383 -501 470 -142 101 -303 155 -460 155 -152 0 -254
-31 -473 -142 -180 -91 -320 -309 -378 -586 -19 -94 -19 -178 1 -288 9 -49 18
-99 19 -112 1 -12 18 -40 38 -60 43 -44 46 -70 15 -99 -44 -40 -62 -44 -117
-27 -56 16 -71 12 -111 -31 l-25 -27 40 5 c22 4 65 9 95 13 30 4 70 12 90 19
49 17 76 5 89 -42 20 -71 15 -99 -26 -133 l-38 -32 33 6 c21 3 31 2 27 -4 -3
-6 1 -10 9 -10 22 0 42 -37 57 -105 10 -46 14 -53 17 -32 6 44 -26 138 -49
144 -22 6 -22 5 -8 54 l12 38 22 -32 c12 -18 52 -77 90 -132 67 -99 119 -165
235 -299 33 -38 57 -72 55 -76 -3 -4 2 -10 10 -14 38 -14 -3 -59 -140 -152
-100 -68 -131 -81 -126 -52 0 4 -8 12 -18 17 -10 6 -22 22 -25 36 -4 14 -11
23 -16 20 -6 -3 -10 2 -10 11 0 9 -12 33 -26 51 l-26 35 31 26 c27 23 33 37
43 103 13 91 2 131 -44 155 -17 9 -32 13 -34 11 -3 -2 9 -10 25 -17 36 -14 46
-48 36 -123 -10 -69 -27 -101 -67 -120 -60 -27 -78 -29 -104 -12 -25 16 -25
16 -15 -4 6 -11 20 -26 31 -34 18 -13 19 -16 5 -27 -8 -7 -15 -18 -15 -24 0
-38 -63 -65 -221 -96 -65 -13 -68 -13 -112 13 -61 36 -140 125 -176 200 -47
95 -64 197 -59 356 4 154 20 202 88 269 47 47 153 179 170 212 l12 25 -21 -22
c-27 -29 -28 -29 -91 4 -30 16 -46 29 -39 33 8 6 8 9 0 14 -6 4 -11 2 -11 -3
0 -6 -7 -11 -15 -11 -8 0 -15 8 -15 17 0 9 -3 13 -6 10 -4 -4 -15 3 -25 14 -9
11 -20 19 -24 17 -3 -2 -19 17 -36 42 -27 39 -28 46 -14 56 14 10 13 12 -3 16
-24 7 -36 60 -17 70 7 5 11 17 8 28 -3 11 -9 17 -15 14 -5 -3 -4 -12 3 -20 7
-8 7 -14 1 -14 -20 0 -23 34 -4 59 24 34 38 61 18 37 -9 -11 -16 -15 -16 -9 0
7 6 18 13 25 8 7 12 19 9 27 -3 10 0 12 14 7 15 -6 16 -5 7 5 -9 9 -9 19 4 42
12 24 17 27 25 16 7 -10 8 -8 3 8 -7 26 64 172 138 283 128 190 302 402 412
500 63 57 86 84 62 74 -9 -3 -30 16 -56 51 -40 53 -43 55 -89 55 -26 0 -72 7
-102 15 -30 8 -56 12 -58 10 -6 -5 -8 -3 98 -133 76 -95 82 -104 67 -119 -15
-15 -20 -13 -64 23 -26 21 -92 78 -146 127 -54 48 -102 85 -107 82 -17 -10 70
-248 122 -332 14 -24 16 -33 6 -33 -16 0 -196 58 -220 71 -10 6 -18 7 -18 5 0
-3 27 -20 60 -38 l60 -33 -6 -40 c-4 -22 -17 -54 -30 -70 -31 -42 -74 -172
-76 -230 0 -34 -14 -74 -54 -156 -30 -60 -54 -112 -54 -115 0 -16 -86 -116
-177 -205 -138 -136 -157 -166 -150 -227 3 -26 12 -65 19 -87 13 -36 12 -44
-5 -77 -10 -21 -23 -38 -29 -38 -5 0 -6 -5 -2 -12 5 -8 2 -9 -9 -5 -10 3 -17
2 -17 -3 0 -6 5 -10 11 -10 5 0 7 -5 3 -12 -5 -8 -11 -6 -20 7 -11 14 -26 17
-86 15 -40 -2 -94 -3 -119 -4 -30 -1 -45 -5 -42 -12 5 -14 -68 -27 -81 -14 -5
5 -16 5 -25 0 -9 -4 -29 -13 -45 -20 -24 -9 -27 -13 -15 -21 10 -8 9 -9 -8 -4
-16 4 -26 0 -35 -14 -7 -12 -16 -21 -19 -21 -10 0 -108 -89 -219 -200 -99
-100 -238 -255 -306 -345 -115 -150 -230 -345 -324 -547 -20 -45 -37 -67 -23
-31 4 11 3 14 -5 9 -7 -4 -12 -18 -12 -32 0 -18 -5 -24 -21 -24 -16 0 -20 -5
-16 -20 3 -11 -3 -29 -14 -41 -10 -12 -19 -25 -19 -30 0 -6 -25 -39 -80 -106
-6 -7 -10 -14 -10 -17 0 -2 -16 -27 -35 -55 -41 -61 -95 -118 -95 -99 0 7 16
63 36 123 19 61 37 117 39 125 4 19 98 273 120 324 9 21 14 40 12 42 -11 11
-131 -297 -207 -531 -57 -178 -72 -218 -65 -170 5 29 5 29 -5 5 -6 -13 -9 -34
-7 -45 3 -11 1 -31 -4 -45 l-9 -25 4 27 c2 19 -1 25 -11 21 -7 -3 -13 -11 -13
-17 0 -22 -25 -66 -37 -66 -7 0 -13 -7 -13 -15 0 -8 -7 -15 -15 -15 -9 0 -15
-9 -15 -25 0 -27 -49 -104 -66 -105 -15 0 -26 -28 -17 -43 4 -7 -1 -5 -12 3
-17 14 -17 13 -10 -10 4 -14 13 -28 19 -32 6 -4 7 -10 3 -14 -4 -4 -14 1 -22
12 -13 18 -14 17 -26 -14 -6 -18 -13 -31 -16 -29 -2 3 3 21 11 42 9 20 15 39
14 43 -3 12 24 97 34 110 6 6 8 12 5 12 -9 0 66 203 127 345 44 100 -1 30 -70
-110 -35 -71 -64 -122 -64 -113 0 9 4 19 9 22 5 3 11 18 14 33 8 43 13 63 46
173 17 57 31 115 30 129 0 14 -3 21 -5 14 -3 -7 -11 -10 -17 -7 -7 2 -43 -42
-83 -103 -77 -116 -224 -358 -224 -368 0 -3 -11 -22 -23 -43 -26 -40 -52 -87
-142 -252 -31 -58 -60 -109 -64 -115 -4 -5 -14 -26 -21 -45 -7 -19 -22 -47
-32 -62 -10 -14 -18 -31 -18 -37 0 -8 316 -11 1124 -11 l1125 0 -24 43 c-36
64 -58 170 -52 247 10 119 75 267 167 380 182 223 432 426 602 486 21 7 38 9
38 4 0 -6 -5 -10 -11 -10 -5 0 -7 -4 -4 -10 3 -5 0 -10 -7 -10 -9 0 -9 -3 2
-10 13 -8 13 -10 -2 -10 -9 0 -20 -5 -24 -12 -5 -7 -2 -9 7 -4 8 4 5 0 -6 -9
-19 -17 -18 -17 25 -10 25 4 75 10 112 15 49 5 75 15 102 35 20 15 39 25 43
21 3 -3 12 -1 19 5 7 5 -16 -45 -50 -113 -150 -298 -171 -570 -61 -788 36 -71
111 -165 167 -210 l51 -40 589 0 590 0 66 37 c251 139 441 312 590 538 36 55
67 102 69 104 7 9 195 -185 213 -220 47 -91 58 -194 34 -339 -6 -33 -5 -34 9
-15 8 11 20 37 28 58 7 20 17 37 21 37 4 0 8 8 8 19 0 10 7 24 15 31 12 10 15
10 15 0 0 -8 3 -11 6 -8 3 4 0 16 -6 28 -11 20 -10 21 12 9 l23 -12 -19 22
c-20 22 -20 22 0 15 17 -7 18 -6 4 12 -8 10 1 6 19 -11 44 -40 119 -155 156
-237 l30 -67 1198 -1 c1137 0 1198 1 1194 18 -3 9 -8 40 -11 67 l-7 50 21 -25
c12 -14 38 -44 58 -67 l37 -43 72 0 73 0 0 30 c0 27 -29 75 -108 180 -29 38
-42 66 -44 94 -1 15 -6 26 -11 26 -5 0 -4 6 2 14 9 10 11 80 8 253 -4 278 -11
383 -26 411 -6 10 -8 22 -5 25 6 5 -22 172 -30 186 -3 5 -8 27 -11 49 -3 23
-10 54 -16 69 -13 34 -19 63 -14 63 19 0 146 -230 221 -400 l33 -75 1 520 0
521 -46 74 c-25 41 -65 99 -90 129 -24 31 -51 65 -59 76 -8 11 12 -36 44 -105
32 -69 62 -141 65 -160 4 -27 3 -31 -5 -17 -12 20 -35 23 -42 5 -3 -8 -6 -6
-6 5 -1 21 -41 24 -41 3 0 -17 -16 -23 -93 -32 -31 -3 -60 -10 -63 -15 -3 -5
-9 -7 -14 -4 -5 3 -7 -3 -5 -14 2 -11 1 -29 -2 -40 -5 -20 -7 -19 -30 11 -13
18 -61 96 -105 173 -90 155 -136 227 -190 301 -20 27 -55 89 -78 137 -23 49
-44 86 -47 84 -2 -3 5 -23 16 -46 25 -48 26 -62 6 -55 -13 5 -12 -2 5 -40 10
-25 18 -46 16 -46 -2 0 -37 60 -77 132 -70 128 -185 322 -262 441 -21 31 -35
57 -31 57 4 0 25 -15 48 -33 77 -63 266 -181 252 -158 -4 6 -1 11 8 11 10 0
13 -6 9 -17 -6 -16 -4 -16 9 -5 14 11 18 10 27 -5 6 -10 11 -15 11 -11 0 3 33
-6 73 -22 39 -15 97 -30 127 -34 55 -6 54 -6 -40 29 -52 20 -103 38 -112 42
-10 3 -18 10 -18 15 0 5 -4 6 -10 3 -5 -3 -15 5 -21 18 -12 27 2 93 19 90 10
-3 9 35 -4 75 -2 6 1 12 6 12 13 0 13 46 -1 71 -5 11 -14 17 -19 14 -12 -7
-24 40 -16 61 3 8 10 13 14 10 5 -3 9 1 9 8 0 8 -8 11 -18 9 -18 -5 -23 5 -35
70 -3 20 -14 53 -24 73 -14 27 -16 42 -9 67 5 17 9 97 9 176 0 153 12 178 30
65 11 -68 43 -353 44 -401 1 -17 3 -29 6 -27 2 3 10 -10 16 -28 6 -18 15 -33
21 -33 6 0 77 -66 159 -146 82 -80 174 -169 204 -197 l55 -51 -24 -25 c-14
-14 -34 -27 -45 -28 -12 -1 20 -4 69 -8 87 -6 290 11 304 26 3 4 -16 4 -44 1
-173 -21 -169 -21 -203 8 -18 15 -32 33 -32 42 0 8 14 34 30 58 31 45 120 218
120 232 0 4 -28 -44 -61 -107 -72 -134 -96 -170 -113 -170 -7 0 -106 94 -219
209 l-205 209 -6 53 c-3 30 -10 101 -16 159 -37 385 -53 477 -89 507 -27 23
-47 30 -36 13 11 -17 20 -179 17 -300 -3 -133 -13 -210 -27 -213 -15 -3 -159
194 -261 357 -89 141 -287 523 -278 537 2 4 -10 18 -26 31 -208 158 -439 395
-883 905 -86 100 -168 190 -181 201 -13 10 -31 38 -39 63 -8 24 -27 75 -41
113 -15 38 -40 122 -56 185 -16 64 -45 163 -65 221 -37 104 -138 330 -149 330
-3 0 6 -26 20 -57z m466 -1121 c109 -160 321 -424 441 -549 28 -29 46 -56 42
-62 -4 -7 -1 -10 7 -9 7 2 12 -4 10 -12 -2 -8 0 -12 4 -8 9 10 35 -12 28 -23
-3 -5 1 -9 9 -9 7 0 24 -11 37 -25 l23 -25 -44 6 c-24 3 -52 13 -61 21 -9 8
-21 12 -26 9 -5 -3 -24 8 -42 24 -19 17 -34 30 -35 30 -1 0 -16 -7 -34 -16
-17 -9 -38 -13 -46 -10 -9 3 -12 0 -9 -9 7 -16 -32 -9 -43 8 -4 6 -1 7 8 2 8
-5 1 5 -14 21 -29 29 -283 533 -335 665 -28 71 -72 204 -72 218 0 3 18 -27 40
-68 23 -40 73 -121 112 -179z m37 -404 c40 -83 95 -185 133 -245 10 -18 16
-38 12 -44 -4 -8 -3 -9 5 -5 6 4 14 0 18 -11 3 -10 12 -25 20 -35 10 -11 11
-18 3 -23 -5 -3 -17 -22 -25 -41 -24 -59 -49 -46 -83 44 -40 104 -136 442
-127 442 2 0 22 -37 44 -82z m924 -660 c10 -8 20 -22 22 -33 2 -11 4 -20 5
-20 1 0 3 -11 5 -25 4 -22 2 -21 -13 8 -10 18 -21 30 -25 26 -4 -4 -7 -2 -7 4
0 6 -6 17 -12 24 -16 16 -61 77 -73 98 -5 8 11 -4 36 -27 24 -23 52 -48 62
-55z m142 -173 c26 -49 51 -94 56 -100 13 -13 11 -22 -5 -22 -8 0 -12 6 -8 15
4 10 1 13 -7 8 -8 -6 -11 -2 -9 10 2 12 -2 18 -10 16 -8 -1 -11 2 -7 7 3 6 -4
20 -15 31 -24 24 -70 116 -70 140 0 26 24 -8 75 -105z m422 -57 c-3 -8 -6 -5
-6 6 -1 11 2 17 5 13 3 -3 4 -12 1 -19z m-3469 -844 c28 -10 52 -21 52 -25 0
-5 -7 -34 -15 -66 -37 -142 0 -340 72 -384 69 -43 124 -7 226 151 30 47 86
115 124 151 116 111 193 124 322 52 132 -74 215 -185 228 -305 7 -71 -24 -170
-71 -224 l-34 -39 -78 39 c-49 25 -72 41 -62 43 32 8 61 70 62 133 1 50 -3 63
-30 97 -32 41 -123 93 -162 93 -30 0 -146 -109 -173 -162 -19 -38 -19 -38 1
-38 26 0 108 -41 183 -92 32 -22 125 -71 205 -110 256 -122 275 -133 294 -169
39 -79 87 -336 88 -471 0 -88 -26 -156 -98 -257 -113 -158 -146 -180 -240
-166 -85 12 -141 45 -282 165 -33 27 -43 30 -127 34 -50 2 -102 10 -115 16
-19 9 -21 9 -8 -2 8 -7 15 -22 15 -33 0 -18 7 -20 62 -20 35 0 63 3 63 8 0 10
12 9 30 -3 24 -15 -15 -48 -69 -56 -34 -6 -40 -9 -24 -13 36 -10 161 -120 185
-165 16 -28 37 -48 66 -61 46 -23 84 -55 64 -55 -12 0 -303 86 -562 166 -80
24 -203 57 -274 73 -70 16 -134 35 -142 43 -12 12 -9 26 22 98 20 46 40 112
45 149 5 36 15 98 24 136 9 39 19 125 22 191 l6 121 43 -3 c24 -2 63 -6 87 -7
l42 -4 -3 42 c-3 37 1 47 38 90 23 27 67 99 97 159 30 61 58 115 64 120 5 6 9
15 9 20 0 6 -21 -20 -46 -59 -52 -81 -63 -89 -107 -80 -102 22 -189 112 -228
234 -26 82 -36 237 -20 311 16 74 52 161 65 156 6 -3 35 -13 64 -22z m3536
-200 c3 -8 2 -12 -4 -9 -6 3 -10 10 -10 16 0 14 7 11 14 -7z m501 -142 c-46
-4 -53 2 -30 28 l18 20 25 -22 24 -23 -37 -3z m-5155 -62 c8 -5 10 -10 4 -10
-7 0 -22 9 -35 21 -19 16 -20 18 -4 10 11 -6 27 -15 35 -21z m3387 -177 c-3
-10 -5 -4 -5 12 0 17 2 24 5 18 2 -7 2 -21 0 -30z m-16 -162 c-6 -58 -14 -135
-17 -171 -11 -120 -18 -145 -39 -148 -12 -2 -16 0 -9 5 20 15 24 43 6 44 -15
1 -15 2 1 6 14 4 17 14 15 51 -1 26 1 65 5 87 5 28 4 34 -2 20 -8 -16 -10 -12
-10 21 -1 22 2 44 6 48 4 4 8 25 9 48 3 51 36 142 42 114 2 -11 -1 -67 -7
-125z m-50 -356 c5 4 9 1 9 -5 0 -17 -25 -6 -26 11 -1 9 1 10 3 1 3 -7 9 -10
14 -7z m-1 -35 c0 -5 -2 -10 -4 -10 -3 0 -8 5 -11 10 -3 6 -1 10 4 10 6 0 11
-4 11 -10z m1800 -35 c0 -8 -2 -15 -4 -15 -2 0 -6 7 -10 15 -3 8 -1 15 4 15 6
0 10 -7 10 -15z m-129 -215 c13 -27 27 -50 31 -50 4 0 4 -7 1 -17 -5 -12 -3
-14 8 -8 12 7 12 6 1 -7 -7 -9 -22 -18 -32 -21 -21 -5 -22 -4 -24 57 0 19 -4
32 -8 29 -5 -2 -8 2 -8 9 0 7 -3 23 -6 36 -11 40 12 23 37 -28z m-56 -87 c-2
-7 -1 -13 4 -13 4 0 12 -26 18 -57 6 -32 14 -66 18 -75 4 -10 3 -18 -3 -18
-14 0 -32 48 -36 95 -1 22 -5 47 -8 55 -13 36 -28 99 -27 116 0 11 9 -6 20
-36 11 -30 17 -60 14 -67z m100 -33 c3 -6 -4 -10 -17 -10 -18 0 -20 2 -8 10
19 12 18 12 25 0z m35 -25 c-7 -9 -15 -13 -19 -10 -3 3 1 10 9 15 21 14 24 12
10 -5z m-40 -24 c0 -4 -6 -8 -14 -8 -8 0 -12 6 -9 14 5 13 23 9 23 -6z m118
-86 c-3 -3 -9 2 -12 12 -6 14 -5 15 5 6 7 -7 10 -15 7 -18z m-163 -14 c3 -5 1
-12 -5 -16 -5 -3 -10 1 -10 9 0 18 6 21 15 7z m65 -127 c16 -71 38 -197 50
-279 24 -166 38 -446 20 -407 -5 13 -8 27 -5 31 2 4 -2 50 -10 102 -15 104
-21 146 -30 234 -9 86 -43 320 -55 384 -11 60 -12 77 -5 69 3 -3 19 -63 35
-134z m-56 80 c3 -9 6 -23 6 -32 0 -13 -3 -12 -15 4 -16 21 -19 44 -6 44 5 0
12 -7 15 -16z m-4091 -106 c9 -7 53 -74 98 -148 44 -74 101 -163 125 -197 51
-72 45 -69 327 -137 203 -49 277 -76 277 -100 0 -27 -22 -121 -30 -130 -7 -7
-262 43 -488 98 l-92 22 -58 -22 c-31 -12 -129 -57 -217 -102 -221 -110 -226
-110 -256 -12 -11 38 -18 74 -15 79 4 5 46 31 94 57 48 26 126 72 174 101 l88
54 -26 52 c-14 29 -55 104 -90 167 -85 154 -85 157 -4 197 77 37 72 36 93 21z
m4115 -23 c-3 -3 -9 2 -12 12 -6 14 -5 15 5 6 7 -7 10 -15 7 -18z m-7213 -405
c3 -5 1 -10 -4 -10 -6 0 -11 5 -11 10 0 6 2 10 4 10 3 0 8 -4 11 -10z m7386
-217 c13 -16 12 -17 -3 -4 -10 7 -18 15 -18 17 0 8 8 3 21 -13z m13 -139 c3
-8 2 -12 -4 -9 -6 3 -10 10 -10 16 0 14 7 11 14 -7z m71 -14 c-3 -5 -13 -10
-21 -10 -8 0 -14 5 -14 10 0 6 9 10 21 10 11 0 17 -4 14 -10z m-13 -29 c12 6
18 6 18 -1 0 -5 -6 -10 -12 -10 -9 0 -10 -2 -2 -8 13 -8 16 -62 4 -62 -15 0
-19 14 -7 28 10 13 9 15 -8 8 -11 -4 -16 -4 -13 0 4 3 1 13 -7 21 -8 8 -15 20
-15 26 0 8 3 8 12 -1 7 -7 17 -8 30 -1z m-7765 -88 c-3 -10 -5 -4 -5 12 0 17
2 24 5 18 2 -7 2 -21 0 -30z"/>
<path d="M4665 2290 c3 -4 -10 -11 -28 -15 -29 -7 -24 -9 41 -18 47 -6 80 -6
95 0 21 9 20 10 -13 25 -35 16 -103 21 -95 8z"/>
<path d="M4385 1962 c0 -100 -12 -184 -46 -331 -11 -46 -19 -85 -17 -86 4 -2
215 -55 223 -55 3 0 5 7 5 16 0 11 5 14 16 10 12 -5 11 0 -4 22 -11 15 -25 46
-32 68 -11 36 -10 47 4 74 l16 33 -40 43 c-43 47 -53 73 -48 125 3 32 9 37 88
77 47 24 74 40 60 37 -58 -14 -147 -22 -167 -14 -12 4 -30 24 -40 43 l-18 35
0 -97z"/>
<path d="M4650 1434 c0 -2 9 -8 20 -14 11 -6 20 -7 20 -2 0 6 -9 12 -20 15
-11 3 -20 3 -20 1z"/>
<path d="M5420 6241 c0 -6 4 -13 10 -16 6 -3 7 1 4 9 -7 18 -14 21 -14 7z"/>
<path d="M4460 6185 c0 -5 5 -17 10 -25 5 -8 10 -10 10 -5 0 6 -5 17 -10 25
-5 8 -10 11 -10 5z"/>
<path d="M2230 6173 c0 -5 -7 -67 -14 -139 -12 -120 -16 -135 -45 -177 -53
-78 -79 -91 -256 -131 -302 -68 -604 -150 -672 -182 -66 -32 -81 -58 -65 -113
17 -53 77 -119 192 -205 120 -90 203 -137 311 -177 87 -32 136 -56 89 -43 -75
19 -316 126 -397 176 -18 11 -33 18 -33 15 0 -17 202 -124 323 -171 148 -59
251 -79 410 -80 l147 -2 0 71 c0 75 -19 297 -26 304 -15 15 -21 -30 -9 -74 8
-28 7 -29 -9 -16 -15 13 -20 11 -43 -11 -31 -31 -26 -50 18 -77 29 -18 30 -19
10 -26 -14 -4 -34 1 -57 14 -24 14 -44 19 -61 15 -21 -6 -24 -11 -20 -37 4
-31 0 -28 -29 19 -9 15 -12 16 -24 2 -8 -8 -24 -13 -38 -10 -15 3 -19 7 -12
12 9 5 9 17 -1 49 -14 49 -20 53 -79 71 l-45 13 32 9 c44 12 50 27 13 34 -17
4 -28 9 -25 12 2 3 0 11 -5 17 -8 10 -21 9 -60 -6 -70 -27 -83 -23 -31 8 74
44 189 148 178 160 -4 3 -29 -4 -56 -16 -64 -27 -75 -27 -31 1 l35 22 -40 6
-40 6 48 23 c62 30 67 41 19 41 -28 0 -55 -11 -98 -38 -81 -52 -94 -58 -59
-27 17 14 48 43 70 65 22 21 61 48 88 59 26 11 47 24 47 29 0 5 35 19 78 31
42 13 94 30 114 39 36 14 108 77 108 94 0 4 4 8 9 8 5 0 8 -24 6 -52 -10 -124
-13 -240 -7 -234 3 4 10 66 14 139 13 205 25 356 33 425 4 34 5 62 1 62 -3 0
-6 -3 -6 -7z"/>
<path d="M4914 6130 c3 -14 6 -34 6 -45 1 -18 2 -18 10 -4 7 12 5 26 -6 45
-15 27 -16 28 -10 4z"/>
<path d="M5471 6125 c1 -19 18 -51 18 -35 0 8 -4 22 -9 30 -5 8 -9 11 -9 5z"/>
<path d="M5491 6065 c1 -19 18 -51 18 -35 0 8 -4 22 -9 30 -5 8 -9 11 -9 5z"/>
<path d="M5522 5965 c0 -11 3 -29 8 -40 11 -25 11 1 0 35 -6 20 -8 21 -8 5z"/>
<path d="M3362 5893 c33 -60 88 -143 95 -143 5 0 1 8 -65 113 -30 48 -56 87
-58 87 -2 0 10 -26 28 -57z"/>
<path d="M5381 5910 c-1 -17 46 -181 54 -188 10 -10 5 24 -14 88 -23 79 -40
120 -40 100z"/>
<path d="M5541 5874 c0 -11 3 -14 6 -6 3 7 2 16 -1 19 -3 4 -6 -2 -5 -13z"/>
<path d="M6110 5870 c6 -11 13 -20 16 -20 2 0 0 9 -6 20 -6 11 -13 20 -16 20
-2 0 0 -9 6 -20z"/>
<path d="M5556 5795 c3 -33 8 -62 10 -64 11 -12 11 10 -2 64 l-13 60 5 -60z"/>
<path d="M2621 5759 c-1 -24 54 -212 93 -322 63 -172 142 -312 273 -485 18
-24 33 -52 33 -62 0 -47 132 -357 150 -352 6 1 33 -15 58 -36 56 -46 108 -82
117 -82 4 0 -13 22 -38 50 -69 76 -80 108 -74 204 6 82 14 116 38 171 20 46
60 95 76 95 8 0 26 9 40 20 43 34 50 27 56 -57 3 -43 17 -111 31 -151 29 -84
103 -190 156 -226 35 -23 37 -23 48 -5 10 15 9 19 -2 19 -29 0 -4 101 33 134
11 11 21 27 21 36 0 23 29 34 36 15 4 -9 1 -21 -5 -29 -8 -10 -5 -19 14 -40
13 -14 31 -26 40 -26 19 0 20 40 0 66 -8 10 -15 23 -15 27 0 10 71 -3 88 -16
41 -33 -68 158 -137 239 -27 31 -47 62 -45 69 3 6 -7 17 -21 25 -14 7 -25 17
-25 21 0 5 -17 17 -38 28 -43 22 -225 206 -294 298 -32 44 -45 70 -42 85 4 20
3 21 -4 4 -7 -17 -19 -5 -79 80 -39 54 -82 117 -97 138 -14 21 -26 34 -26 28
0 -6 19 -39 43 -74 24 -35 70 -101 102 -148 73 -108 124 -168 250 -295 l101
-103 -88 -7 c-48 -3 -92 -4 -98 0 -5 3 -10 -3 -10 -14 0 -12 5 -21 10 -21 6 0
10 -5 10 -12 0 -6 -7 -4 -18 5 -10 10 -24 17 -30 17 -7 0 -30 19 -53 42 l-40
42 16 -45 c9 -24 26 -65 36 -91 22 -53 23 -62 9 -53 -5 3 -10 1 -10 -5 0 -6
-12 -27 -26 -45 l-26 -34 -41 21 c-63 32 -136 88 -212 164 -65 66 -67 66 -31
19 20 -27 40 -58 43 -68 3 -10 11 -16 18 -13 7 2 34 -14 61 -35 26 -22 56 -45
66 -50 14 -7 17 -17 12 -37 -4 -15 -10 -31 -15 -36 -5 -5 1 -25 13 -44 l21
-34 -22 11 c-12 7 -27 21 -34 31 -6 11 -17 20 -23 20 -6 0 -33 28 -61 63 -153
188 -264 403 -379 732 -29 83 -53 143 -53 134z m960 -754 c-1 -15 -24 -12 -29
3 -3 9 2 13 12 10 10 -1 17 -7 17 -13z m-161 -5 c0 -5 -7 -10 -16 -10 -8 0
-12 5 -9 10 3 6 10 10 16 10 5 0 9 -4 9 -10z m-336 -159 c37 -37 38 -41 42
-122 l4 -84 -26 55 c-34 71 -75 190 -65 190 4 0 24 -17 45 -39z"/>
<path d="M6190 5740 c6 -11 13 -20 16 -20 2 0 0 9 -6 20 -6 11 -13 20 -16 20
-2 0 0 -9 6 -20z"/>
<path d="M5573 5685 c0 -22 2 -30 4 -17 2 12 2 30 0 40 -3 9 -5 -1 -4 -23z"/>
<path d="M6216 5698 c26 -44 97 -148 100 -148 3 0 1 6 -3 13 -56 88 -96 147
-99 147 -3 0 -2 -6 2 -12z"/>
<path d="M7201 5622 c19 -34 38 -62 42 -62 4 0 24 -11 44 -25 20 -13 40 -22
45 -19 5 3 7 0 6 -8 -2 -7 5 -12 15 -11 10 0 16 -1 13 -4 -10 -11 128 -123
151 -123 8 0 11 -4 8 -10 -3 -6 1 -7 10 -4 11 5 14 2 9 -12 -3 -11 -2 -15 3
-8 4 6 19 14 33 17 l25 6 -23 -17 -23 -18 26 -24 c14 -13 25 -19 25 -13 0 6
11 10 25 9 15 0 23 -6 21 -13 -3 -6 5 -13 16 -16 13 -4 17 -10 12 -18 -4 -8
-3 -10 5 -5 6 4 8 13 4 19 -4 7 -8 14 -8 17 0 8 -95 93 -95 86 0 -4 -12 7 -26
24 -15 17 -29 29 -32 26 -2 -3 -14 6 -24 20 -11 14 -23 23 -26 20 -3 -3 -11 2
-18 12 -11 16 -193 150 -268 198 l-29 18 34 -62z m134 -82 c-3 -5 -12 -10 -18
-10 -7 0 -6 4 3 10 19 12 23 12 15 0z m151 -110 c-1 -8 6 -14 14 -12 8 2 11 0
7 -4 -12 -13 -37 -13 -34 -1 1 7 -2 11 -8 10 -5 0 -15 5 -22 11 -9 10 -5 13
16 12 18 -1 28 -6 27 -16z m65 -40 c20 -11 26 -30 8 -30 -5 0 -7 5 -4 11 4 6
1 10 -6 8 -27 -3 -40 1 -34 11 8 13 12 12 36 0z m56 -64 c-14 -11 -15 -15 -5
-19 8 -3 8 -6 2 -6 -6 -1 -18 7 -25 16 -10 11 -10 14 -1 9 6 -4 12 -2 12 3 0
6 8 11 18 11 16 -1 16 -1 -1 -14z"/>
<path d="M3315 5633 c24 -58 77 -143 152 -245 38 -51 84 -116 103 -145 19 -29
36 -50 39 -48 2 3 -2 13 -10 22 -7 10 13 -9 44 -42 57 -59 64 -71 40 -69 -7 1
-13 -4 -13 -12 0 -17 2 -17 33 -3 26 12 65 -6 224 -102 87 -53 248 -120 219
-92 -3 4 -12 8 -19 9 -28 4 -126 50 -202 95 -205 121 -442 359 -563 565 -23
38 -42 75 -42 81 0 7 -5 15 -11 18 -5 4 -3 -10 6 -32z"/>
<path d="M5584 5505 c0 -71 1 -99 3 -62 2 37 2 96 0 130 -2 34 -3 4 -3 -68z"/>
<path d="M1159 5593 c-13 -16 -12 -17 4 -4 16 13 21 21 13 21 -2 0 -10 -8 -17
-17z"/>
<path d="M1955 5600 c-3 -5 -2 -10 4 -10 5 0 13 5 16 10 3 6 2 10 -4 10 -5 0
-13 -4 -16 -10z"/>
<path d="M4186 5600 c5 -5 38 -20 74 -33 69 -27 73 -32 85 -119 8 -64 23 -62
17 2 -2 28 -1 51 4 51 50 7 54 6 64 -25 9 -27 9 -25 4 15 -4 42 -3 47 18 54
17 6 7 9 -43 15 -37 5 -101 18 -143 29 -86 24 -94 25 -80 11z"/>
<path d="M2062 5576 c-17 -37 -15 -45 4 -18 8 12 14 27 12 33 -2 6 -9 -1 -16
-15z"/>
<path d="M1908 5573 c-10 -2 -18 -9 -18 -14 0 -6 8 -5 20 1 11 6 20 13 20 15
0 3 -1 4 -2 4 -2 -1 -11 -3 -20 -6z"/>
<path d="M3590 5566 c0 -2 8 -10 18 -17 15 -13 16 -12 3 4 -13 16 -21 21 -21
13z"/>
<path d="M1069 5488 c-64 -71 -107 -128 -96 -128 3 0 36 37 73 83 37 45 74 90
82 100 8 9 13 17 11 17 -3 0 -34 -33 -70 -72z"/>
<path d="M3291 5524 c0 -11 3 -14 6 -6 3 7 2 16 -1 19 -3 4 -6 -2 -5 -13z"/>
<path d="M3640 5505 c13 -14 26 -25 28 -25 3 0 -5 11 -18 25 -13 14 -26 25
-28 25 -3 0 5 -11 18 -25z"/>
<path d="M2180 5480 c0 -5 5 -10 10 -10 6 0 10 5 10 10 0 6 -4 10 -10 10 -5 0
-10 -4 -10 -10z"/>
<path d="M1911 5414 c0 -11 3 -14 6 -6 3 7 2 16 -1 19 -3 4 -6 -2 -5 -13z"/>
<path d="M3720 5416 c0 -2 8 -10 18 -17 15 -13 16 -12 3 4 -13 16 -21 21 -21
13z"/>
<path d="M6844 5400 c9 -32 39 -101 43 -97 2 3 -8 29 -22 58 -14 30 -23 47
-21 39z"/>
<path d="M1851 5381 c-18 -14 -20 -19 -9 -24 20 -7 41 7 36 26 -3 14 -6 14
-27 -2z"/>
<path d="M7377 5285 c32 -63 59 -113 61 -111 4 5 -106 226 -113 226 -3 0 21
-52 52 -115z"/>
<path d="M4357 5268 c6 -133 10 -140 12 -15 0 59 -3 107 -7 107 -5 0 -7 -42
-5 -92z"/>
<path d="M5572 5320 c0 -19 2 -27 5 -17 2 9 2 25 0 35 -3 9 -5 1 -5 -18z"/>
<path d="M3190 5317 c0 -8 16 -31 35 -53 l35 -39 -31 53 c-34 55 -39 60 -39
39z"/>
<path d="M5491 5304 c0 -11 3 -14 6 -6 3 7 2 16 -1 19 -3 4 -6 -2 -5 -13z"/>
<path d="M5511 5304 c0 -11 3 -14 6 -6 3 7 2 16 -1 19 -3 4 -6 -2 -5 -13z"/>
<path d="M3860 5275 c13 -14 26 -25 28 -25 3 0 -5 11 -18 25 -13 14 -26 25
-28 25 -3 0 5 -11 18 -25z"/>
<path d="M6890 5285 c0 -5 5 -17 10 -25 5 -8 10 -10 10 -5 0 6 -5 17 -10 25
-5 8 -10 11 -10 5z"/>
<path d="M2010 5254 c0 -14 4 -23 10 -19 6 3 10 15 10 26 0 10 -4 19 -10 19
-5 0 -10 -12 -10 -26z"/>
<path d="M5504 5250 c3 -19 9 -70 12 -113 4 -42 9 -75 12 -73 8 9 19 86 12 86
-4 0 -10 25 -13 56 -3 31 -11 62 -18 68 -8 8 -10 3 -5 -24z"/>
<path d="M5562 5250 c0 -14 2 -19 5 -12 2 6 2 18 0 25 -3 6 -5 1 -5 -13z"/>
<path d="M1941 5241 c-9 -6 -11 -18 -6 -40 13 -61 49 -50 38 12 -6 39 -10 42
-32 28z"/>
<path d="M3920 5209 c77 -67 111 -87 50 -30 -36 33 -69 61 -75 60 -5 0 6 -13
25 -30z"/>
<path d="M6911 5238 c-1 -12 31 -89 35 -85 3 2 -4 24 -15 48 -11 24 -20 41
-20 37z"/>
<path d="M4996 5201 c-3 -5 3 -11 15 -14 16 -4 18 -3 8 9 -13 16 -16 17 -23 5z"/>
<path d="M5551 5194 c0 -11 3 -14 6 -6 3 7 2 16 -1 19 -3 4 -6 -2 -5 -13z"/>
<path d="M2029 5173 c-13 -16 -12 -17 4 -4 16 13 21 21 13 21 -2 0 -10 -8 -17
-17z"/>
<path d="M7441 5155 c0 -5 6 -21 14 -35 8 -14 14 -20 14 -15 0 6 -6 21 -14 35
-8 14 -14 21 -14 15z"/>
<path d="M4353 5105 c0 -22 2 -30 4 -17 2 12 2 30 0 40 -3 9 -5 -1 -4 -23z"/>
<path d="M4040 5116 c0 -2 8 -10 18 -17 15 -13 16 -12 3 4 -13 16 -21 21 -21
13z"/>
<path d="M6960 5105 c0 -5 5 -17 10 -25 5 -8 10 -10 10 -5 0 6 -5 17 -10 25
-5 8 -10 11 -10 5z"/>
<path d="M3715 5040 c10 -11 22 -17 28 -13 6 4 3 12 -8 20 -28 20 -41 16 -20
-7z"/>
<path d="M2271 5034 c-1 -12 6 -57 15 -100 14 -67 16 -119 10 -339 -3 -143
-10 -289 -15 -325 -5 -36 -8 -67 -5 -69 7 -8 34 21 28 31 -6 9 6 134 34 373
l8 60 13 -40 c24 -71 166 -358 221 -445 94 -150 299 -410 323 -410 4 0 -5 18
-19 40 -15 22 -30 38 -34 35 -4 -3 -7 3 -6 13 0 9 -4 16 -11 15 -6 -1 -17 5
-25 15 -12 15 -11 16 5 3 9 -7 17 -11 17 -7 0 3 -27 60 -60 126 -33 66 -60
122 -60 125 0 4 30 -19 66 -49 36 -31 78 -63 94 -71 16 -8 35 -25 41 -37 16
-31 24 -195 11 -241 -14 -52 5 -45 24 8 15 44 17 92 8 172 -6 50 -10 55 -82
115 -41 35 -115 111 -164 171 -49 59 -91 107 -93 107 -8 0 14 -50 98 -219 97
-195 94 -190 76 -171 -120 127 -421 724 -459 913 -16 82 -58 224 -59 201z"/>
<path d="M3732 5012 c-8 -6 0 -14 25 -26 l38 -18 -24 26 c-14 14 -25 26 -25
26 -1 0 -7 -4 -14 -8z"/>
<path d="M2222 4870 c0 -14 2 -19 5 -12 2 6 2 18 0 25 -3 6 -5 1 -5 -13z"/>
<path d="M2232 4770 c0 -14 2 -19 5 -12 2 6 2 18 0 25 -3 6 -5 1 -5 -13z"/>
<path d="M2242 4660 c0 -14 2 -19 5 -12 2 6 2 18 0 25 -3 6 -5 1 -5 -13z"/>
<path d="M8604 4594 c-18 -14 -18 -15 4 -4 12 6 22 13 22 15 0 8 -5 6 -26 -11z"/>
<path d="M8554 4570 c-12 -5 -25 -13 -28 -18 -9 -15 31 -2 45 14 13 16 12 16
-17 4z"/>
<path d="M7666 4544 c13 -53 33 -108 33 -96 1 18 -29 122 -35 122 -2 0 -1 -12
2 -26z"/>
<path d="M7641 4427 c-1 -4 19 -77 44 -163 25 -85 45 -159 45 -164 0 -6 -29
10 -65 35 -96 68 -79 48 27 -31 86 -64 198 -137 198 -129 0 2 -22 19 -50 39
-27 20 -50 44 -50 53 0 14 -2 15 -9 5 -13 -21 -26 3 -54 103 -29 99 -85 264
-86 252z"/>
<path d="M7701 4425 c0 -5 6 -32 13 -60 8 -27 14 -41 14 -30 0 21 -25 107 -27
90z"/>
<path d="M3252 4381 c12 -23 42 -66 65 -96 39 -50 49 -56 123 -79 113 -36 122
-34 75 15 -32 32 -186 141 -273 193 -8 5 -3 -10 10 -33z"/>
<path d="M7732 4300 c0 -8 4 -26 8 -40 6 -20 8 -21 8 -5 0 11 -3 29 -8 40 -5
12 -8 14 -8 5z"/>
<path d="M7485 4264 c6 -5 23 -20 40 -34 29 -24 29 -24 10 -2 -11 13 -29 28
-40 34 -11 6 -15 6 -10 2z"/>
<path d="M2353 4239 c-18 -5 -33 -12 -33 -14 0 -6 62 6 80 16 13 7 13 8 0 8
-8 -1 -30 -5 -47 -10z"/>
<path d="M7752 4210 c0 -14 2 -19 5 -12 2 6 2 18 0 25 -3 6 -5 1 -5 -13z"/>
<path d="M3588 4173 c6 -2 18 -2 25 0 6 3 1 5 -13 5 -14 0 -19 -2 -12 -5z"/>
<path d="M7762 4160 c0 -14 2 -19 5 -12 2 6 2 18 0 25 -3 6 -5 1 -5 -13z"/>
<path d="M7771 4104 c0 -11 3 -14 6 -6 3 7 2 16 -1 19 -3 4 -6 -2 -5 -13z"/>
<path d="M7585 4065 c11 -9 29 -21 40 -26 l20 -10 -20 16 c-11 9 -29 21 -40
26 l-20 10 20 -16z"/>
<path d="M7650 4026 c0 -3 9 -10 20 -16 11 -6 20 -8 20 -6 0 3 -9 10 -20 16
-11 6 -20 8 -20 6z"/>
<path d="M7700 3996 c0 -3 9 -10 20 -16 11 -6 20 -8 20 -6 0 3 -9 10 -20 16
-11 6 -20 8 -20 6z"/>
<path d="M7900 3967 c0 -13 307 -191 440 -256 94 -45 55 -21 -105 65 -127 69
-246 138 -310 180 -14 9 -25 14 -25 11z"/>
<path d="M7890 3886 c0 -3 14 -12 30 -21 17 -9 30 -13 30 -11 0 3 -13 12 -30
21 -16 9 -30 13 -30 11z"/>
<path d="M7960 3845 c0 -2 18 -14 40 -25 22 -11 40 -18 40 -15 0 2 -18 14 -40
25 -22 11 -40 18 -40 15z"/>
<path d="M8450 3655 c14 -8 30 -14 35 -14 6 0 -1 6 -15 14 -14 8 -29 14 -35
14 -5 0 1 -6 15 -14z"/>
<path d="M8500 3636 c0 -5 109 -56 119 -56 8 1 -44 29 -86 46 -18 8 -33 12
-33 10z"/>
<path d="M2538 3379 c-65 -32 -118 -61 -118 -64 0 -3 54 22 120 55 66 33 120
62 120 65 0 7 7 10 -122 -56z"/>
<path d="M2358 3284 c-38 -20 -36 -28 2 -9 17 9 30 18 30 20 0 7 -1 6 -32 -11z"/>
<path d="M2688 3168 c-66 -107 -149 -219 -269 -363 -19 -22 -25 -33 -15 -25
63 50 252 305 335 453 55 97 29 63 -51 -65z"/>
<path d="M2265 3230 c-16 -11 -25 -20 -20 -20 10 0 64 39 55 40 -3 0 -18 -9
-35 -20z"/>
<path d="M2070 3189 c-22 -18 -22 -19 -3 -10 12 6 25 16 28 21 9 15 3 12 -25
-11z"/>
<path d="M2168 3174 c-38 -20 -36 -28 2 -9 17 9 30 18 30 20 0 7 -1 6 -32 -11z"/>
<path d="M1995 3139 c-59 -45 -67 -57 -12 -18 42 29 65 50 55 49 -2 0 -21 -14
-43 -31z"/>
<path d="M7855 3140 c-3 -5 -1 -10 4 -10 6 0 11 5 11 10 0 6 -2 10 -4 10 -3 0
-8 -4 -11 -10z"/>
<path d="M7887 3143 c-4 -3 -7 -11 -7 -17 0 -6 5 -5 12 2 6 6 9 14 7 17 -3 3
-9 2 -12 -2z"/>
<path d="M1773 2979 c-216 -163 -423 -336 -475 -396 -18 -21 10 1 62 47 120
108 273 232 420 343 63 47 124 93 135 101 11 8 17 15 13 16 -4 0 -74 -50 -155
-111z"/>
<path d="M340 3020 c6 -11 13 -20 16 -20 2 0 0 9 -6 20 -6 11 -13 20 -16 20
-2 0 0 -9 6 -20z"/>
<path d="M385 2940 c9 -16 18 -30 21 -30 2 0 -2 14 -11 30 -9 17 -18 30 -21
30 -2 0 2 -13 11 -30z"/>
<path d="M266 2908 c31 -62 101 -163 143 -207 22 -24 41 -48 41 -53 0 -4 4 -8
10 -8 5 0 35 -18 66 -40 32 -22 62 -40 67 -40 5 0 -13 15 -39 33 -106 71 -196
170 -264 290 -34 61 -52 79 -24 25z"/>
<path d="M430 2866 c0 -2 8 -10 18 -17 15 -13 16 -12 3 4 -13 16 -21 21 -21
13z"/>
<path d="M460 2826 c0 -2 8 -10 18 -17 15 -13 16 -12 3 4 -13 16 -21 21 -21
13z"/>
<path d="M3090 2785 c0 -8 5 -15 10 -15 6 0 10 -7 10 -15 0 -16 15 -20 24 -7
6 10 -8 33 -20 35 -5 1 -8 5 -6 10 1 4 -2 7 -8 7 -5 0 -10 -7 -10 -15z"/>
<path d="M507 2770 c3 -11 10 -20 15 -20 5 0 27 -17 49 -37 63 -58 174 -129
257 -164 78 -32 248 -79 287 -79 38 0 36 -11 -14 -64 -151 -160 -314 -341
-366 -406 -101 -126 -285 -390 -272 -390 2 0 21 26 42 58 145 220 390 517 580
702 l87 84 116 -1 117 0 -85 8 c-47 5 -93 9 -103 10 -23 0 -22 8 10 43 28 31
27 31 -7 -1 -41 -38 -62 -40 -172 -19 -187 36 -413 151 -500 254 -32 39 -47
47 -41 22z"/>
<path d="M3375 2740 c-3 -6 1 -7 9 -4 18 7 21 14 7 14 -6 0 -13 -4 -16 -10z"/>
<path d="M8128 2733 c7 -3 16 -2 19 1 4 3 -2 6 -13 5 -11 0 -14 -3 -6 -6z"/>
<path d="M8193 2723 c9 -2 23 -2 30 0 6 3 -1 5 -18 5 -16 0 -22 -2 -12 -5z"/>
<path d="M2156 2623 c-132 -67 -371 -139 -479 -143 -5 0 -6 -4 -3 -9 3 -4 58
2 123 14 161 31 298 81 399 144 66 41 45 38 -40 -6z"/>
<path d="M8507 2633 c-9 -2 -14 -9 -11 -15 4 -7 2 -8 -4 -4 -13 8 -228 -12
-257 -24 -20 -8 -20 -9 1 -9 12 -1 57 -10 100 -21 44 -10 117 -22 164 -25 47
-4 95 -8 108 -11 19 -4 22 0 22 24 0 22 -10 35 -45 60 -25 18 -49 31 -53 31
-4 -1 -15 -3 -25 -6z"/>
<path d="M7800 2611 c0 -6 4 -13 10 -16 6 -3 7 1 4 9 -7 18 -14 21 -14 7z"/>
<path d="M2140 2534 c-68 -31 -149 -53 -260 -69 -75 -11 -79 -13 -35 -14 43
-1 174 22 255 45 l25 7 -25 -28 c-14 -15 -69 -58 -122 -97 -54 -38 -98 -71
-98 -74 0 -6 17 3 45 24 11 8 -2 -6 -28 -32 -27 -27 -47 -50 -45 -51 4 -4 240
198 307 263 29 29 49 52 45 51 -5 0 -34 -11 -64 -25z"/>
<path d="M1540 2459 c-11 -7 -4 -8 25 -3 50 8 58 14 19 14 -16 0 -36 -5 -44
-11z"/>
<path d="M1725 2205 c-60 -41 -105 -75 -101 -75 8 0 216 141 216 146 0 7 -7 3
-115 -71z"/>
<path d="M5940 2202 c0 -12 19 -26 26 -19 2 2 -2 10 -11 17 -9 8 -15 8 -15 2z"/>
<path d="M1700 2118 c-19 -12 -98 -67 -174 -121 -192 -137 -376 -256 -376
-243 0 3 63 55 140 117 77 61 140 113 140 116 0 8 -197 -146 -290 -226 -52
-45 -116 -93 -142 -107 -27 -13 -48 -27 -48 -29 0 -10 165 78 290 155 212 130
533 362 498 360 -2 0 -19 -10 -38 -22z"/>
<path d="M1555 2086 c-28 -19 -66 -48 -85 -66 -19 -17 1 -5 45 26 84 60 102
74 94 74 -2 0 -27 -15 -54 -34z"/>
<path d="M8380 1980 c0 -5 5 -10 10 -10 6 0 10 5 10 10 0 6 -4 10 -10 10 -5 0
-10 -4 -10 -10z"/>
<path d="M1480 1899 c-118 -90 -313 -216 -430 -277 -188 -98 -251 -138 -153
-97 20 8 38 14 40 12 2 -2 -26 -37 -62 -78 -95 -106 -200 -245 -295 -389 -46
-69 -92 -133 -104 -142 -12 -9 -21 -23 -21 -30 0 -7 -14 -14 -32 -16 -29 -3
-34 1 -62 50 -45 78 -46 97 -16 189 15 44 24 83 21 86 -3 3 -9 -3 -12 -13 -4
-10 -18 -46 -31 -79 -25 -59 -36 -96 -87 -290 -55 -204 -85 -463 -60 -508 9
-15 13 -11 28 25 60 139 118 247 134 252 9 3 23 20 29 37 33 86 254 437 394
627 55 72 97 132 95 132 -2 0 -30 -32 -61 -70 -89 -109 -78 -74 14 42 137 175
156 191 276 254 148 77 315 189 400 268 39 36 68 65 65 65 -3 0 -34 -22 -70
-50z m-803 -731 c-72 -98 -118 -169 -199 -313 -68 -121 -91 -149 -42 -52 60
118 280 454 291 444 2 -3 -20 -38 -50 -79z m-425 -667 c-19 -42 -41 -83 -49
-91 -12 -13 -13 -11 -9 15 3 17 7 65 10 109 4 43 11 97 18 119 l12 41 27 -59
26 -59 -35 -75z"/>
<path d="M407 1533 c-93 -144 -160 -266 -202 -368 -16 -38 -34 -75 -42 -81 -7
-6 -13 -22 -13 -35 0 -14 -15 -61 -34 -104 -37 -88 -76 -213 -100 -318 -27
-117 -16 -108 15 13 36 138 83 277 115 343 13 27 24 55 24 62 0 27 172 365
245 480 45 72 47 75 41 75 -3 0 -25 -30 -49 -67z"/>
<path d="M1205 1509 c-4 -6 -5 -12 -2 -15 2 -3 7 2 10 11 7 17 1 20 -8 4z"/>
<path d="M750 1470 c-8 -5 -10 -10 -5 -10 6 0 17 5 25 10 8 5 11 10 5 10 -5 0
-17 -5 -25 -10z"/>
<path d="M419 1363 c-15 -41 -6 -48 12 -9 9 20 12 36 8 36 -5 0 -14 -12 -20
-27z"/>
<path d="M220 1295 c0 -8 5 -15 10 -15 6 0 10 7 10 15 0 8 -4 15 -10 15 -5 0
-10 -7 -10 -15z"/>
<path d="M130 1270 c0 -5 7 -7 15 -4 8 4 15 8 15 10 0 2 -7 4 -15 4 -8 0 -15
-4 -15 -10z"/>
<path d="M1111 1054 c0 -11 3 -14 6 -6 3 7 2 16 -1 19 -3 4 -6 -2 -5 -13z"/>
<path d="M1 43 c-1 -32 3 -43 14 -43 18 0 18 4 0 50 l-13 35 -1 -42z"/>
</g>
</svg>
